<?xml version="1.0" encoding="UTF-8"?>
<!-- Generator: Adobe Illustrator 22.0.1, SVG Export Plug-In . SVG Version: 6.00 Build 0)  -->
<svg version="1.1" id="Layer_1" xmlns="http://www.w3.org/2000/svg" xmlns:xlink="http://www.w3.org/1999/xlink" x="0px" y="0px" viewBox="0 20 284.3 124" style="enable-background:new 0 20 284.3 124;" xml:space="preserve"><link xmlns="" type="text/css" rel="stylesheet" id="dark-mode-custom-link"/><link xmlns="" type="text/css" rel="stylesheet" id="dark-mode-general-link"/><style xmlns="" lang="en" type="text/css" id="dark-mode-custom-style"/><style xmlns="" lang="en" type="text/css" id="dark-mode-native-style"/>
<style type="text/css">
	.st0{fill:#f0f0f0;}
</style>
<g>
	<path class="st0" d="M34.2,100.8h66.5L86.5,76.2v-8.4l3.9-5.1H78.6L67.4,43.2L56.2,62.7H44.4l3.9,5.1v8.4L34.2,100.8z M48.4,97.4   H40l8.4-14.5V97.4z M54.1,97.4h-2.4V77.6h2.4V97.4z M54.1,74.3h-2.4v-2.4h2.4V74.3z M65.7,97.4h-8.2V77.6h8.2V97.4z M77.3,97.4   h-8.2V77.6h8.2V97.4z M77.3,74.3H57.5v-2.4h19.8V74.3z M83.1,97.4h-2.4V77.6h2.4V97.4z M83.1,74.3h-2.4v-2.4h2.4V74.3z M86.5,82.9   l8.4,14.5h-8.4V82.9z M67.4,49.9l7.4,12.7H60L67.4,49.9z M83.6,66l-0.5,0.7v1.8H51.7v-1.8L51.2,66H83.6z"/>
	<g>
		<polygon class="st0" points="246.7,80 233.5,80 233.5,57.2 227.5,60.7 227.5,86 250.2,86   "/>
		<path class="st0" d="M207.5,74.2L207.5,74.2L207.5,74.2c0,3.6-2.9,6.5-6.5,6.5s-6.5-2.9-6.5-6.5l0,0l0,0v-17l-6,3.5v13.5l0,0    c0,6.9,5.6,12.5,12.5,12.5s12.5-5.6,12.5-12.5l0,0v-17l-6,3.5V74.2z"/>
		<path class="st0" d="M168.4,74.2L168.4,74.2L168.4,74.2c0,3.6-2.9,6.5-6.5,6.5s-6.5-2.9-6.5-6.5l0,0l0,0v-17l-6,3.5v13.5l0,0    c0,6.9,5.6,12.5,12.5,12.5s12.5-5.6,12.5-12.5l0,0v-17l-6,3.5V74.2z"/>
		<polygon class="st0" points="133.9,57.2 113.8,57.2 110.4,63.3 123.5,63.3 110.4,86 131.9,86 135.4,80 120.8,80   "/>
	</g>
</g>
</svg>