<?xml version="1.0" encoding="UTF-8"?>
<!DOCTYPE svg PUBLIC "-//W3C//DTD SVG 1.1//EN" "http://www.w3.org/Graphics/SVG/1.1/DTD/svg11.dtd">
<svg xmlns="http://www.w3.org/2000/svg" xmlns:xlink="http://www.w3.org/1999/xlink" version="1.1" width="1601px" height="902px" viewBox="-0.5 -0.5 1601 902" style="background-color: rgb(17, 17, 34);"><defs/><g><rect x="705" y="40" width="190" height="60" fill="none" stroke="none" pointer-events="all"/><path d="M 891.1 58.84 L 854.65 55.9 L 846.22 40 L 781.84 40 L 767.94 57.57 L 709.6 60.48 L 705 83.72 L 718.32 83.72 C 719.23 74.99 726.96 68.18 736.35 68.18 C 745.75 68.18 753.48 74.99 754.39 83.72 L 837.46 83.72 C 838.37 74.99 846.1 68.18 855.5 68.18 C 864.86 68.18 872.55 74.94 873.54 83.61 L 889.94 81.36 C 889.96 81.34 895 63.27 891.1 58.84 Z M 809.61 59.25 L 771.04 59.25 L 783.66 43.33 L 809.61 43.33 L 809.61 59.25 Z M 813.12 59.25 L 813.12 43.33 L 837.48 43.33 L 845.93 59.25 L 813.12 59.25 Z M 736.37 70.91 C 727.94 70.91 721.12 77.42 721.12 85.46 C 721.12 93.49 727.96 100 736.37 100 C 744.8 100 751.62 93.49 751.62 85.46 C 751.62 77.42 744.8 70.91 736.37 70.91 Z M 736.37 95.06 C 730.8 95.06 726.29 90.77 726.29 85.46 C 726.29 80.14 730.8 75.85 736.37 75.85 C 741.94 75.85 746.45 80.14 746.45 85.46 C 746.45 90.77 741.94 95.06 736.37 95.06 Z M 855.52 70.91 C 847.09 70.91 840.27 77.42 840.27 85.46 C 840.27 93.49 847.11 100 855.52 100 C 863.95 100 870.77 93.49 870.77 85.46 C 870.77 77.42 863.93 70.91 855.52 70.91 Z M 855.52 95.06 C 849.95 95.06 845.44 90.77 845.44 85.46 C 845.44 80.14 849.95 75.85 855.52 75.85 C 861.09 75.85 865.6 80.14 865.6 85.46 C 865.6 90.77 861.07 95.06 855.52 95.06 Z" fill="#ffffff" stroke="none" pointer-events="all"/><rect x="0" y="0" width="1600" height="900" fill="none" stroke="#111122" pointer-events="all"/></g></svg>