<?xml version="1.0" encoding="UTF-8"?>
<!DOCTYPE svg PUBLIC "-//W3C//DTD SVG 1.1//EN" "http://www.w3.org/Graphics/SVG/1.1/DTD/svg11.dtd">
<svg xmlns="http://www.w3.org/2000/svg" xmlns:xlink="http://www.w3.org/1999/xlink" version="1.1" width="941px" height="581px" viewBox="-0.5 -0.5 941 581" style="background-color: rgb(17, 17, 34);"><defs/><g><rect x="0" y="0" width="940" height="580" fill="#112" stroke="none" pointer-events="all"/><rect x="780" y="230" width="140" height="120" fill="none" stroke="none" pointer-events="all"/><path d="M 907.28 269.87 L 895.82 240.45 C 893.67 234.82 888.97 230.03 880.1 230 L 863.92 230 L 836.26 230 L 819.8 230 C 810.97 230.04 806.27 234.84 804.09 240.47 L 792.62 269.87 C 788.06 270.46 780 275.78 780.01 285.84 L 780.01 323.3 L 791.21 323.3 L 791.21 335.25 C 791.18 350 812.19 349.82 812.19 335.25 L 812.19 323.3 L 850 323.3 L 887.73 323.3 L 887.73 335.25 C 887.77 349.82 908.79 350 908.8 335.25 L 908.8 323.3 L 920 323.3 L 920 285.84 C 919.96 275.78 911.88 270.46 907.28 269.87 Z M 802.03 300.7 C 796.66 300.72 792.32 296.27 792.33 290.81 C 792.31 285.3 796.66 280.85 802.03 280.9 C 807.38 280.85 811.72 285.3 811.72 290.81 C 811.72 296.27 807.38 300.72 802.03 300.7 Z M 850 269.6 L 849.9 269.6 L 804.57 269.6 L 813.23 246.43 C 814.28 243.13 815.89 240.79 819.73 240.73 L 849.91 240.73 L 850 240.73 L 880.29 240.73 C 884.06 240.79 885.68 243.13 886.77 246.43 L 895.43 269.6 L 850 269.6 Z M 897.97 300.7 C 892.56 300.72 888.22 296.27 888.19 290.81 C 888.22 285.3 892.56 280.85 897.97 280.9 C 903.28 280.85 907.62 285.3 907.67 290.81 C 907.64 296.27 903.29 300.72 897.97 300.7 Z" fill="#ffffff" stroke="none" pointer-events="all"/></g></svg>